<svg width="98" height="117" viewBox="0 0 98 117" fill="none" xmlns="http://www.w3.org/2000/svg">
<path d="M56.66 84.9609C56.2823 84.9609 55.8949 84.8159 55.6044 84.5257C55.0234 83.9452 55.0137 82.9973 55.6044 82.4169L76.0261 61.8797C76.7523 61.1542 77.1492 60.1868 77.1492 59.1517C77.1492 58.1263 76.7426 57.1589 76.0164 56.4333C75.2902 55.7078 74.3218 55.3113 73.3051 55.3113H73.2954C72.269 55.3113 71.3006 55.7175 70.5744 56.443L62.9636 64.095C62.3827 64.6851 61.4335 64.6851 60.8429 64.095C60.2619 63.5146 60.2522 62.5664 60.8429 61.986L68.4539 54.3342C69.7417 53.038 71.4556 52.322 73.2857 52.3123H73.3051C75.1255 52.3123 76.8394 53.0186 78.1272 54.2955C79.4248 55.5821 80.1414 57.2943 80.1511 59.1226C80.1511 60.951 79.4538 62.6632 78.166 63.9595L57.7443 84.4966C57.4538 84.7868 57.0664 84.9416 56.6791 84.9416L56.66 84.9609Z" fill="#4D5559"/>
<path d="M40.218 117C33.5367 117 26.8556 114.504 21.7332 109.493C14.5484 102.46 11.9727 91.7615 15.1681 82.233L22.2851 61.0572C23.0113 58.8903 24.5316 57.1492 26.5844 56.1238C28.6276 55.108 30.9418 54.9434 33.1108 55.6786C37.5747 57.178 39.9955 62.0247 38.4947 66.4939L37.6521 69.0089L56.4565 50.0969C57.8219 48.7232 59.6423 47.9687 61.5692 47.959C63.5252 47.93 65.3263 48.7041 66.7013 50.0584C68.0763 51.4224 68.8315 53.2314 68.8412 55.1661C68.8412 57.1008 68.0957 58.9193 66.7401 60.2929L51.0536 76.061L51.0342 76.0804L50.1432 76.98C49.5622 77.5701 48.6133 77.5701 48.0323 76.98C47.4513 76.3996 47.4417 75.4516 48.0323 74.8712L48.0614 74.8422L64.6292 58.1842C65.4329 57.3812 65.8687 56.3074 65.8687 55.1755C65.8687 54.0437 65.4232 52.9798 64.6098 52.1769C63.8062 51.3836 62.7409 50.9386 61.6177 50.9386H61.608C60.4751 50.9386 59.4101 51.3836 58.6064 52.1962L36.7517 74.165C36.1029 74.8229 35.0958 74.939 34.3115 74.4553C33.5272 73.9716 33.1786 73.0235 33.4691 72.1432L35.6961 65.5265C36.6741 62.6244 35.0958 59.4708 32.2005 58.5035C30.7868 58.0295 29.2859 58.1359 27.9594 58.7937C26.6328 59.4515 25.6354 60.5928 25.1706 61.9955L18.0633 83.1713C15.2262 91.6164 17.5114 101.106 23.8828 107.346C33.0527 116.313 47.8582 116.207 56.9022 107.123L80.4027 83.5C81.555 82.3392 81.5553 80.453 80.3933 79.2921C79.8317 78.7311 79.0859 78.431 78.2919 78.431C77.4979 78.431 76.7524 78.7407 76.1908 79.3115L64.4451 91.123C63.8641 91.7131 62.9152 91.7131 62.3245 91.123C61.7436 90.5426 61.7339 89.5946 62.3245 89.0142L74.0702 77.2025C76.3942 74.8711 80.1705 74.8617 82.5138 77.1737C84.8474 79.4953 84.8572 83.268 82.5429 85.5994L59.0421 109.222C53.9004 114.398 47.0931 116.981 40.2956 116.981L40.218 117Z" fill="#4D5559"/>
<path d="M68.8407 85.9383C68.463 85.9383 68.0759 85.7932 67.7854 85.503C67.2044 84.9226 67.1947 83.9746 67.7854 83.3845L79.7148 71.3891C80.2957 70.799 80.6251 70.0639 80.6348 69.319C80.6445 68.5451 80.3248 67.81 79.7051 67.1908C79.0466 66.5427 78.2139 66.1653 77.3424 66.1266C76.5194 66.0976 75.7642 66.3782 75.2219 66.92L63.4762 78.7314C62.8952 79.3215 61.9464 79.3215 61.3557 78.7314C60.7747 78.151 60.765 77.2031 61.3557 76.6227L73.1014 64.8112C74.244 63.66 75.7836 63.0602 77.4588 63.1376C79.0855 63.2054 80.6251 63.8825 81.8161 65.0627C83.0072 66.2525 83.6558 67.7713 83.6364 69.3577C83.6171 70.8862 82.9781 72.3566 81.8452 73.4981L69.9156 85.4933C69.6251 85.7835 69.2377 85.9383 68.8504 85.9383H68.8407Z" fill="#4D5559"/>
<path d="M39.9476 55.9109C39.7152 55.9109 39.4826 55.853 39.2599 55.7466C38.524 55.3693 38.2433 54.4696 38.6209 53.7344L51.9254 28.0123C52.9034 26.1259 52.1579 23.8042 50.2697 22.8271C49.3595 22.3531 48.3137 22.266 47.3357 22.5756C46.3577 22.8851 45.5539 23.5623 45.0794 24.4716L40.1218 34.0583C39.7442 34.7935 38.8339 35.0836 38.1077 34.6967C37.3718 34.3194 37.0814 33.4197 37.4687 32.6845L42.4263 23.098C43.2687 21.4728 44.6826 20.2733 46.4255 19.7219C48.1685 19.1705 50.0178 19.3253 51.6446 20.1669C54.9949 21.8984 56.3119 26.0291 54.5786 29.3762L41.2741 55.0985C41.0126 55.6112 40.4899 55.9109 39.9476 55.9109V55.9109Z" fill="#4D5559"/>
<path d="M15.1487 89.885C14.926 89.885 14.6936 89.8367 14.4709 89.7206C5.50438 85.174 -0.179642 75.7421 0.00433619 65.6912L0.42076 43.3643C0.459492 41.0813 1.38902 38.9532 3.03514 37.3764C4.68126 35.7899 6.85999 34.9386 9.12583 34.987C13.8318 35.0741 17.5985 38.9726 17.5114 43.6836L17.4629 46.3342L29.712 22.6531C31.5421 19.1126 35.9189 17.7196 39.4726 19.5479C43.0166 21.3762 44.4206 25.7582 42.5809 29.2988L32.3555 49.0719C31.9778 49.8071 31.0677 50.0876 30.3415 49.7103C29.6055 49.333 29.315 48.4333 29.7023 47.6981L39.9277 27.9252C40.4506 26.9191 40.5475 25.7681 40.1989 24.6847C39.8503 23.6012 39.1045 22.7209 38.0975 22.1985C36.0156 21.1247 33.4497 21.9372 32.3652 24.0267L18.131 51.5482C17.7049 52.3704 16.7754 52.7864 15.8846 52.5543C14.9841 52.3318 14.374 51.5192 14.3934 50.6002L14.5192 43.6255C14.5773 40.5686 12.1275 38.0343 9.06767 37.9763C7.54743 37.9666 6.17247 38.4985 5.10733 39.5336C4.04219 40.559 3.43216 41.9424 3.41279 43.4321L2.99637 65.759C2.83176 74.6684 7.86706 83.0361 15.8169 87.07C16.5528 87.4473 16.8432 88.3371 16.4752 89.082C16.2138 89.6044 15.6812 89.9043 15.139 89.9043L15.1487 89.885Z" fill="#4D5559"/>
<path d="M51.9342 52.4963C51.6921 52.4963 51.4403 52.4381 51.2079 52.3123C50.4817 51.9157 50.2202 51.0065 50.6268 50.281L54.9166 42.5517L58.3154 35.9833C58.693 35.2481 58.7899 34.4451 58.5768 33.7293C58.3541 32.9844 57.8215 32.3846 57.0468 31.9783C56.2238 31.5526 55.3137 31.4464 54.4712 31.6786C53.6772 31.8914 53.0477 32.3944 52.6895 33.0715L45.0399 47.8626C44.6623 48.5978 43.752 48.8782 43.0258 48.5009C42.2899 48.1237 42.0091 47.2239 42.3868 46.4887L50.0363 31.6979C50.7819 30.2662 52.0795 29.2311 53.6868 28.7862C55.2555 28.3605 56.9402 28.5441 58.4218 29.318C59.9226 30.0919 60.9879 31.3496 61.443 32.8684C61.8787 34.3291 61.7141 35.9252 60.9782 37.3569L57.5601 43.9544L53.2512 51.7223C52.98 52.2157 52.4667 52.4963 51.9438 52.4963H51.9342Z" fill="#4D5559"/>
<path d="M62.4021 50.6002C62.0923 50.6002 61.7823 50.5036 61.5208 50.3102C60.8527 49.8265 60.7076 48.888 61.1917 48.2205C62.2278 46.8082 64.2322 43.3064 63.8352 41.5361C63.7481 41.1685 63.5736 40.9363 63.2251 40.7525C63.167 40.7235 63.1186 40.6946 63.0702 40.6559C62.4311 40.2109 61.8405 40.0656 61.2014 40.2204C59.9717 40.5203 58.5967 41.9231 57.5412 43.9545C57.1636 44.6897 56.2533 44.9798 55.5271 44.5929C54.7911 44.2156 54.5104 43.3161 54.8881 42.5809C56.3793 39.6982 58.3643 37.831 60.4946 37.3086C61.9471 36.9507 63.3994 37.2507 64.726 38.1503C65.7911 38.7501 66.4884 39.6885 66.7595 40.8687C67.5729 44.4479 64.0192 49.4298 63.6125 49.9812C63.322 50.3778 62.8669 50.5905 62.4021 50.5905V50.6002Z" fill="#4D5559"/>
<path d="M21.375 21.7631C21.191 21.7631 21.007 21.7243 20.8327 21.6566L12.5441 18.4064C11.7791 18.1065 11.3918 17.2359 11.7016 16.4717C12.0018 15.7074 12.8733 15.3301 13.6382 15.6299L21.9269 18.8804C22.6919 19.1803 23.0792 20.0509 22.7693 20.8151C22.5369 21.4052 21.9754 21.7631 21.375 21.7631Z" fill="#1DB5E2"/>
<path d="M23.9513 12.4278C23.4672 12.4278 22.9928 12.1957 22.7023 11.7604L16.4469 2.3189C15.9918 1.63207 16.1856 0.703508 16.8731 0.248846C17.5606 -0.205815 18.4901 -0.0220726 18.9452 0.67443L25.2005 10.1159C25.6556 10.8028 25.4717 11.7313 24.7745 12.186C24.5227 12.3504 24.2321 12.4375 23.9513 12.4375V12.4278Z" fill="#1DB5E2"/>
<path d="M33.3056 14.0627C33.3056 14.0627 33.2281 14.0627 33.1894 14.0627C32.3664 13.995 31.7563 13.2792 31.8144 12.457L32.6472 1.83532C32.715 1.01306 33.4315 0.403698 34.2545 0.46174C35.0776 0.529456 35.6877 1.24522 35.6296 2.06748L34.7968 12.6891C34.7387 13.4727 34.0802 14.0627 33.3056 14.0627V14.0627Z" fill="#1DB5E2"/>
<path d="M75.0864 47.2725C75.0864 47.2725 75.0285 47.2725 74.9994 47.2725C74.1764 47.2242 73.547 46.5181 73.5857 45.6958L74.0796 36.8152C74.128 35.993 74.8057 35.3352 75.6578 35.4029C76.4809 35.4513 77.1102 36.1576 77.0715 36.9799L76.5777 45.8602C76.5292 46.6534 75.8708 47.2725 75.0864 47.2725Z" fill="#1DB5E2"/>
<path d="M85.012 46.4791C84.6925 46.4791 84.3633 46.3728 84.0825 46.16C83.4337 45.6473 83.3272 44.7088 83.8307 44.0606L90.851 35.1609C91.3642 34.5128 92.3036 34.3967 92.9523 34.9094C93.6011 35.4221 93.7076 36.3606 93.2041 37.0088L86.1839 45.9085C85.8934 46.2857 85.4478 46.4791 85.012 46.4791Z" fill="#1DB5E2"/>
<path d="M86.1535 56.172C85.4854 56.172 84.8657 55.7174 84.7011 55.0306C84.5074 54.2277 84.9914 53.4152 85.7951 53.2217L96.1463 50.6775C96.95 50.4743 97.7635 50.9678 97.9571 51.7707C98.1508 52.5736 97.6665 53.3861 96.8628 53.5796L86.502 56.1238C86.3858 56.1529 86.26 56.172 86.1438 56.172H86.1535Z" fill="#1DB5E2"/>
</svg>
