<svg width="191" height="57" viewBox="0 0 191 57" fill="none" xmlns="http://www.w3.org/2000/svg">
<g clip-path="url(#clip0_1_437)">
<path d="M182.598 56.5669H7.70096C3.85323 56.5669 0.705078 53.4187 0.705078 49.571V7.5957C0.705078 3.74796 3.85323 0.599814 7.70096 0.599814H182.598C186.446 0.599814 189.594 3.74796 189.594 7.5957V49.571C189.594 53.4187 186.446 56.5669 182.598 56.5669Z" fill="black"/>
<path d="M182.598 0.599814H7.70096C3.85323 0.599814 0.705078 3.74796 0.705078 7.5957V49.571C0.705078 53.4187 3.85323 56.5669 7.70096 56.5669H182.598C186.446 56.5669 189.594 53.4187 189.594 49.571V7.5957C189.594 3.74796 186.446 0.599814 182.598 0.599814ZM182.598 1.71916C185.839 1.71916 188.475 4.35576 188.475 7.5957V49.571C188.475 52.8115 185.839 55.4481 182.598 55.4481H7.70096C4.46103 55.4481 1.82442 52.8115 1.82442 49.571V7.5957C1.82442 4.35576 4.46103 1.71916 7.70096 1.71916H182.598Z" fill="#A6A6A6"/>
<path d="M67.0524 14.9321C67.0524 16.1043 66.7053 17.0379 66.01 17.7342C65.2203 18.5623 64.1911 18.9766 62.9258 18.9766C61.7141 18.9766 60.6839 18.5568 59.8367 17.7162C58.988 16.8761 58.5645 15.8344 58.5645 14.5915C58.5645 13.3481 58.988 12.307 59.8367 11.4663C60.6839 10.6263 61.7141 10.206 62.9258 10.206C63.5271 10.206 64.1027 10.3235 64.6492 10.558C65.1957 10.7931 65.6341 11.1051 65.962 11.4959L65.2241 12.2342C64.6684 11.5702 63.9031 11.2384 62.9258 11.2384C62.0421 11.2384 61.278 11.5489 60.6331 12.1703C59.9881 12.7923 59.6657 13.599 59.6657 14.5915C59.6657 15.5841 59.9881 16.3907 60.6331 17.0128C61.278 17.6342 62.0421 17.9447 62.9258 17.9447C63.8633 17.9447 64.6449 17.6325 65.2706 17.0074C65.6767 16.6001 65.9117 16.034 65.9745 15.3069H62.9258V14.2986H66.9939C67.0333 14.5178 67.0524 14.7282 67.0524 14.9321" fill="white"/>
<path d="M67.0517 14.9323H66.9118C66.9107 16.0778 66.5761 16.9676 65.9104 17.6355L65.9089 17.6366L65.9083 17.6378C65.1437 18.4373 64.1609 18.8352 62.9251 18.8369C61.7458 18.8352 60.7586 18.4329 59.9344 17.6175C59.1119 16.8004 58.7052 15.8029 58.7037 14.5918C58.7052 13.3801 59.1119 12.3832 59.9344 11.5666C60.7586 10.7506 61.7458 10.3478 62.9251 10.3461C63.5083 10.3461 64.0636 10.4599 64.5932 10.6867C65.1234 10.9151 65.5421 11.2146 65.8542 11.5863L65.9613 11.4961L65.8624 11.3972L65.1245 12.1361L65.2234 12.2344L65.3311 12.1449C64.7495 11.4479 63.9331 11.0966 62.9251 11.0987C62.0087 11.0976 61.2025 11.425 60.5356 12.07C59.8623 12.7171 59.524 13.5691 59.5251 14.5918C59.524 15.6144 59.8623 16.4664 60.5356 17.1135C61.2025 17.7585 62.0087 18.0859 62.9251 18.0848C63.8936 18.0865 64.719 17.758 65.3688 17.1065C65.8028 16.6714 66.0488 16.0686 66.1133 15.3192L66.1263 15.1672H63.065V14.4387H66.9932V14.2988L66.8554 14.3234C66.8937 14.5355 66.9118 14.7371 66.9118 14.9323H67.0517H67.1916C67.1916 14.7196 67.1719 14.5011 67.1309 14.2737L67.1102 14.1589H62.7852V15.3072V15.4471H65.9738V15.3072L65.8344 15.2951C65.7727 15.9992 65.5486 16.5293 65.1709 16.9087C64.5697 17.5076 63.8319 17.8033 62.9251 17.805C62.0741 17.8038 61.3522 17.5109 60.7297 16.9124C60.1132 16.3161 59.8065 15.5548 59.805 14.5918C59.8065 13.6287 60.1132 12.8674 60.7297 12.2711C61.3522 11.6727 62.0741 11.3797 62.9251 11.3786C63.8712 11.3808 64.5857 11.6934 65.1164 12.3247L65.2147 12.4416L66.0603 11.595L66.1509 11.5043L66.0684 11.4064C65.7246 10.9966 65.2666 10.6713 64.7036 10.4298C64.1396 10.1876 63.5444 10.0663 62.9251 10.0663C61.6812 10.0651 60.6078 10.5024 59.7371 11.3676C58.8632 12.2312 58.4227 13.3167 58.4238 14.5918C58.4227 15.8663 58.8632 16.9523 59.7377 17.8164C60.6078 18.6811 61.6812 19.1178 62.9251 19.1167C64.2205 19.1178 65.295 18.6876 66.1105 17.8311L66.0093 17.7345L66.1082 17.8334C66.833 17.1092 67.1926 16.1309 67.1916 14.9323H67.0517Z" fill="white"/>
<path d="M73.5005 11.4248H69.6774V14.0866H73.1251V15.0954H69.6774V17.7572H73.5005V18.7886H68.5996V10.3935H73.5005V11.4248Z" fill="white"/>
<path d="M73.5018 11.4246V11.2847H69.5387V14.2263H72.9864V14.9548L69.5387 14.9553V17.8969H73.3618V18.6484H68.7408V10.5332H73.3618V11.4246H73.5018V11.2847V11.4246H73.6417V10.3932V10.2533H68.4609V18.9282H73.6417V17.757V17.6171H69.8186V15.2351H73.2663V14.0864V13.9465H69.8186V11.5645H73.6417V11.4246H73.5018" fill="white"/>
<path d="M78.0512 18.7886H76.9717V11.4248H74.627V10.3935H80.3959V11.4248H78.0512V18.7886Z" fill="white"/>
<path d="M78.0524 18.7883V18.6484H77.1129V11.2847H74.7681V10.5332H80.2572V11.2847H77.9125V18.7883H78.0524V18.6484V18.7883H78.1923V11.5645H80.5371V10.3932V10.2533H74.4883V11.4246V11.5645H76.833V18.9282H78.0524H78.1923V18.7883H78.0524" fill="white"/>
<path d="M84.5703 18.7886V10.3935H85.6487V18.7886H84.5703Z" fill="white"/>
<path d="M84.5657 18.7883H84.7056V10.5332H85.5041V18.6484H84.5657V18.7883H84.7056H84.5657V18.9282H85.644H85.784V10.2533H84.5657H84.4258V18.9282H84.5657V18.7883Z" fill="white"/>
<path d="M90.4319 18.7886H89.3524V11.4248H87.0078V10.3935H92.7766V11.4248H90.4319V18.7886Z" fill="white"/>
<path d="M90.4312 18.7884V18.6485H89.4916V11.2848H87.147V10.5333H92.636V11.2848H90.2913V18.7884H90.4312V18.6485V18.7884H90.5711V11.5646H92.9158V10.3934V10.2534H86.8672V11.4247V11.5646H89.2118V18.9283H90.4312H90.5711V18.7884H90.4312" fill="white"/>
<path d="M98.3378 17.0013C98.9592 17.6304 99.7195 17.9447 100.619 17.9447C101.518 17.9447 102.278 17.6304 102.899 17.0013C103.521 16.3723 103.832 15.5682 103.832 14.5915C103.832 13.6149 103.521 12.8108 102.899 12.1817C102.278 11.5527 101.518 11.2384 100.619 11.2384C99.7195 11.2384 98.9592 11.5527 98.3378 12.1817C97.7174 12.8108 97.406 13.6149 97.406 14.5915C97.406 15.5682 97.7174 16.3723 98.3378 17.0013ZM103.697 17.7042C102.871 18.5529 101.845 18.9766 100.619 18.9766C99.391 18.9766 98.3651 18.5529 97.5416 17.7042C96.7156 16.8564 96.3047 15.8186 96.3047 14.5915C96.3047 13.3645 96.7156 12.3266 97.5416 11.4789C98.3651 10.6301 99.391 10.206 100.619 10.206C101.839 10.206 102.862 10.6323 103.691 11.4844C104.519 12.3365 104.934 13.3722 104.934 14.5915C104.934 15.8186 104.52 16.8564 103.697 17.7042Z" fill="white"/>
<path d="M98.3391 17.0016L98.2396 17.0999C98.884 17.7542 99.688 18.0865 100.62 18.0848C101.551 18.0865 102.356 17.7542 103 17.0999C103.648 16.4451 103.975 15.5979 103.974 14.5918C103.975 13.5856 103.648 12.7384 103 12.0836C102.356 11.4293 101.551 11.097 100.62 11.0987C99.688 11.097 98.884 11.4293 98.2396 12.0836C97.5925 12.7384 97.2656 13.5856 97.2673 14.5918C97.2656 15.5979 97.5925 16.4451 98.2396 17.0999L98.3391 17.0016L98.4386 16.9032C97.845 16.2992 97.5483 15.5394 97.5471 14.5918C97.5483 13.6441 97.845 12.8843 98.4386 12.2803C99.0375 11.6764 99.7529 11.3802 100.62 11.3786C101.486 11.3802 102.203 11.6764 102.801 12.2803C103.395 12.8843 103.692 13.6441 103.693 14.5918C103.692 15.5394 103.395 16.2992 102.801 16.9032C102.203 17.5071 101.486 17.8033 100.62 17.805C99.7529 17.8033 99.0375 17.5071 98.4386 16.9032L98.3391 17.0016ZM103.698 17.7044L103.598 17.6071C102.796 18.4291 101.815 18.8352 100.62 18.8369C99.4246 18.8352 98.4434 18.4291 97.6427 17.6071L97.6389 17.6028L97.6427 17.6071C96.8421 16.7823 96.447 15.7876 96.4459 14.5918C96.447 13.3959 96.8421 12.4012 97.6427 11.5764C98.4434 10.7544 99.4246 10.3478 100.62 10.3461C101.807 10.3478 102.786 10.7561 103.593 11.5824C104.396 12.411 104.793 13.4041 104.795 14.5918C104.793 15.7876 104.397 16.7823 103.598 17.6071L103.698 17.7044L103.799 17.8016C104.647 16.9305 105.076 15.8499 105.075 14.5918C105.076 13.3408 104.645 12.2624 103.793 11.3874C102.941 10.509 101.873 10.0647 100.62 10.0663C99.3606 10.0647 98.2894 10.5069 97.4422 11.3819V11.3813C96.5923 12.253 96.1649 13.3336 96.166 14.5918C96.1649 15.8499 96.5923 16.9305 97.4422 17.8022L97.446 17.8061L97.4422 17.8016C98.2894 18.6767 99.3606 19.1178 100.62 19.1167C101.879 19.1178 102.95 18.6767 103.799 17.8016L103.698 17.7044" fill="white"/>
<path d="M106.449 18.7886V10.3935H107.762L111.842 16.9243H111.889L111.842 15.3064V10.3935H112.922V18.7886H111.796L107.527 11.9413H107.481L107.527 13.5597V18.7886H106.449Z" fill="white"/>
<path d="M106.449 18.7883H106.588V10.5332H107.684L111.764 17.064H111.888H112.032L111.981 15.3041V10.5332H112.781V18.6484H111.873L107.604 11.8011H107.48H107.336L107.386 13.5617V18.6484H106.449V18.7883H106.588H106.449V18.9282H107.526H107.666V13.5572L107.62 11.9372L107.48 11.941V12.0809H107.526V11.941L107.408 12.0154L111.717 18.9282H112.921H113.061V10.2533H111.841H111.701V15.3079L111.748 16.9278L111.888 16.924V16.7841H111.841V16.924L111.96 16.8497L107.839 10.2533H106.449H106.309V18.9282H106.449V18.7883Z" fill="white"/>
<path d="M150.327 42.575H152.937V25.0836H150.327V42.575ZM173.843 31.3844L170.85 38.9678H170.76L167.654 31.3844H164.842L169.499 41.9836L166.844 47.8793H169.568L176.746 31.3844H173.843ZM159.036 40.5883C158.18 40.5883 156.988 40.1609 156.988 39.1028C156.988 37.7527 158.474 37.2352 159.756 37.2352C160.904 37.2352 161.443 37.4827 162.141 37.8206C161.938 39.4406 160.543 40.5883 159.036 40.5883V40.5883ZM159.351 31.0017C157.461 31.0017 155.504 31.8346 154.693 33.6799L157.01 34.6473C157.506 33.6799 158.428 33.3645 159.396 33.3645C160.746 33.3645 162.119 34.175 162.141 35.6152V35.795C161.668 35.525 160.657 35.12 159.418 35.12C156.921 35.12 154.377 36.4924 154.377 39.0579C154.377 41.3983 156.426 42.9062 158.72 42.9062C160.476 42.9062 161.443 42.1186 162.052 41.1961H162.141V42.546H164.661V35.8398C164.661 32.7349 162.344 31.0017 159.351 31.0017V31.0017ZM143.216 33.5136H139.503V27.518H143.216C145.168 27.518 146.276 29.1341 146.276 30.5158C146.276 31.8713 145.168 33.5136 143.216 33.5136ZM143.149 25.0836H136.893V42.575H139.503V35.9481H143.149C146.042 35.9481 148.887 33.8531 148.887 30.5158C148.887 27.1786 146.042 25.0836 143.149 25.0836ZM109.035 40.5915C107.232 40.5915 105.722 39.0814 105.722 37.0073C105.722 34.9113 107.232 33.3782 109.035 33.3782C110.816 33.3782 112.214 34.9113 112.214 37.0073C112.214 39.0814 110.816 40.5915 109.035 40.5915V40.5915ZM112.033 32.3638H111.943C111.357 31.6652 110.23 31.034 108.81 31.034C105.834 31.034 103.107 33.6487 103.107 37.0073C103.107 40.3435 105.834 42.9357 108.81 42.9357C110.23 42.9357 111.357 42.3044 111.943 41.5835H112.033V42.44C112.033 44.717 110.816 45.9341 108.855 45.9341C107.255 45.9341 106.263 44.7842 105.857 43.8151L103.58 44.7618C104.234 46.3396 105.97 48.2783 108.855 48.2783C111.921 48.2783 114.513 46.4746 114.513 42.0793V31.3947H112.033V32.3638ZM116.316 42.575H118.931V25.0831H116.316V42.575ZM122.786 36.8045C122.718 34.5051 124.566 33.3333 125.896 33.3333C126.934 33.3333 127.812 33.8514 128.105 34.5959L122.786 36.8045ZM130.9 34.821C130.405 33.4907 128.894 31.034 125.806 31.034C122.74 31.034 120.193 33.4459 120.193 36.9849C120.193 40.3211 122.718 42.9357 126.099 42.9357C128.827 42.9357 130.405 41.2676 131.058 40.2985L129.03 38.9458C128.354 39.9378 127.429 40.5915 126.099 40.5915C124.769 40.5915 123.823 39.9827 123.214 38.7884L131.17 35.4971L130.9 34.821ZM67.5062 32.86V35.3845H73.5471C73.3668 36.8045 72.8934 37.8413 72.172 38.5627C71.2932 39.4421 69.9181 40.4112 67.5062 40.4112C63.7868 40.4112 60.8791 37.4133 60.8791 33.694C60.8791 29.9747 63.7868 26.9764 67.5062 26.9764C69.5125 26.9764 70.9773 27.7656 72.0594 28.78L73.8401 26.9994C72.33 25.5564 70.3236 24.4519 67.5062 24.4519C62.4116 24.4519 58.1289 28.5996 58.1289 33.694C58.1289 38.7884 62.4116 42.9357 67.5062 42.9357C70.2564 42.9357 72.33 42.0345 73.9528 40.3434C75.6209 38.6754 76.1395 36.3312 76.1395 34.4379C76.1395 33.8514 76.0946 33.3109 76.004 32.86H67.5062ZM83.0075 40.5915C81.2039 40.5915 79.6484 39.1038 79.6484 36.9849C79.6484 34.8434 81.2039 33.3782 83.0075 33.3782C84.8105 33.3782 86.366 34.8434 86.366 36.9849C86.366 39.1038 84.8105 40.5915 83.0075 40.5915V40.5915ZM83.0075 31.034C79.7161 31.034 77.0336 33.536 77.0336 36.9849C77.0336 40.4112 79.7161 42.9357 83.0075 42.9357C86.2983 42.9357 88.9808 40.4112 88.9808 36.9849C88.9808 33.536 86.2983 31.034 83.0075 31.034ZM96.0383 40.5915C94.2354 40.5915 92.6798 39.1038 92.6798 36.9849C92.6798 34.8434 94.2354 33.3782 96.0383 33.3782C97.8415 33.3782 99.3969 34.8434 99.3969 36.9849C99.3969 39.1038 97.8415 40.5915 96.0383 40.5915ZM96.0383 31.034C92.7471 31.034 90.0651 33.536 90.0651 36.9849C90.0651 40.4112 92.7471 42.9357 96.0383 42.9357C99.3292 42.9357 102.012 40.4112 102.012 36.9849C102.012 33.536 99.3292 31.034 96.0383 31.034Z" fill="white"/>
<path d="M15.4097 45.9189L15.3057 45.8195C14.8986 45.3887 14.6582 44.7197 14.6582 43.8535V44.0573V13.1131C14.6582 13.1103 14.6582 13.1082 14.6582 13.106C14.6582 13.1087 14.6582 13.1109 14.6582 13.1137V13.3181C14.6582 12.3801 14.9385 11.6735 15.408 11.2499L32.7435 28.585L15.4097 45.9189ZM14.6582 13.1043C14.6582 13.0272 14.6603 12.9524 14.6642 12.8786C14.6603 12.9518 14.6582 13.0272 14.6582 13.1043ZM14.6642 12.8753C14.6642 12.8743 14.6642 12.8732 14.6646 12.8721C14.6642 12.8732 14.6642 12.8743 14.6642 12.8753ZM14.6646 12.8655C14.6646 12.8649 14.6646 12.8644 14.6646 12.8638C14.6646 12.8644 14.6646 12.8649 14.6646 12.8655Z" fill="url(#paint0_linear_1_437)"/>
<path d="M38.5218 34.5703L38.6536 34.4955L45.4996 30.6056C46.1523 30.2345 46.5873 29.7847 46.8043 29.3087C46.5879 29.7847 46.1527 30.2351 45.4996 30.6062L38.6536 34.496L38.5218 34.5703V34.5703ZM38.5234 34.3653L32.7441 28.5851L38.5229 22.8058L45.4996 26.7693C46.3856 27.2728 46.883 27.9216 46.9661 28.5845C46.9661 28.5851 46.9661 28.5862 46.9661 28.5872C46.883 29.2485 46.3856 29.8979 45.4996 30.4012L38.5234 34.3653" fill="url(#paint1_linear_1_437)"/>
<path d="M16.6434 46.5781C16.1591 46.5781 15.7366 46.4207 15.4071 46.1234L15.4076 46.1228C15.7372 46.4202 16.1603 46.5781 16.6445 46.5781C16.6865 46.5781 16.7292 46.577 16.7724 46.5749C16.7286 46.577 16.6854 46.5781 16.6434 46.5781V46.5781ZM16.644 46.3731C16.1597 46.3737 15.7372 46.2157 15.4076 45.9184V45.918L32.7415 28.584L38.5208 34.3643L18.2115 45.9037C17.6495 46.2223 17.1172 46.3731 16.644 46.3731V46.3731ZM15.4027 46.1196C15.3721 46.0918 15.342 46.0622 15.3125 46.0316L15.4027 46.1196Z" fill="url(#paint2_linear_1_437)"/>
<path d="M32.7418 28.5845L15.4062 11.2494C15.7358 10.9526 16.1577 10.7952 16.6414 10.7952C17.1159 10.7952 17.6487 10.9466 18.2117 11.2657L38.5205 22.8052L32.7418 28.5845V28.5845ZM38.6512 22.6746L18.2117 11.0615C17.6487 10.7422 17.1159 10.5908 16.6414 10.5908C16.6392 10.5908 16.6377 10.5908 16.6354 10.5908C16.6382 10.5908 16.6403 10.5908 16.6437 10.5908C17.117 10.5908 17.6493 10.7416 18.2117 11.0609L38.6512 22.6746V22.6746Z" fill="url(#paint3_linear_1_437)"/>
<path d="M16.7754 46.5757C17.2153 46.5505 17.7023 46.3991 18.2144 46.1089L38.5221 34.57L18.2144 46.1089C17.7027 46.3997 17.2153 46.5505 16.7754 46.5757V46.5757ZM15.41 46.1242L15.4057 46.1204C15.4072 46.1215 15.4089 46.1231 15.41 46.1242ZM15.3155 46.0324L15.3066 46.0237V46.0232C15.31 46.0264 15.3127 46.0296 15.3155 46.0324Z" fill="black"/>
<path d="M38.5254 34.5703L38.6572 34.4955L38.5254 34.5703Z" fill="url(#paint4_linear_1_437)"/>
<path d="M16.6475 46.5781C16.1632 46.5781 15.7401 46.4202 15.4106 46.1228L15.41 46.1234C15.4089 46.1223 15.4072 46.1207 15.4057 46.1196L15.3155 46.0316C15.3127 46.0288 15.31 46.0256 15.3066 46.0224L15.4106 45.9184C15.7401 46.2157 16.1627 46.3737 16.6469 46.3731C17.1201 46.3731 17.6525 46.2223 18.2144 45.9037L38.5237 34.3643L38.6539 34.4944L38.5221 34.5693L18.2144 46.1081C17.7023 46.3983 17.2153 46.5497 16.7754 46.5749C16.7321 46.577 16.6894 46.5781 16.6475 46.5781" fill="url(#paint5_linear_1_437)"/>
<path d="M15.3057 46.0234C14.8986 45.5926 14.6582 44.9237 14.6582 44.0575V44.0569C14.6582 44.9237 14.8986 45.5921 15.3057 46.0229V46.0234" fill="black"/>
<path d="M15.3057 46.0234C14.8986 45.5926 14.6582 44.9242 14.6582 44.0575V43.8536C14.6582 44.7198 14.8986 45.3888 15.3057 45.8196L15.4097 45.9191L15.3057 46.0234" fill="url(#paint6_linear_1_437)"/>
<path d="M15.3066 46.0234L15.4106 45.9191V45.9195L15.3066 46.0234" fill="url(#paint7_linear_1_437)"/>
<path d="M46.8027 29.3086C46.9103 29.0724 46.9645 28.8298 46.9645 28.587C46.9645 28.5866 46.9645 28.5861 46.9645 28.5861C46.9645 28.8292 46.9103 29.0719 46.8027 29.3086Z" fill="black"/>
<path d="M38.6555 34.4946L38.5254 34.3645L45.5015 30.4004C46.3875 29.8971 46.8849 29.2477 46.968 28.5863C46.968 28.8291 46.9139 29.0717 46.8063 29.3079C46.5893 29.7839 46.1543 30.2337 45.5015 30.6048L38.6555 34.4946Z" fill="url(#paint8_linear_1_437)"/>
<path d="M46.9635 28.585V28.5844C46.9629 27.8525 46.4737 27.1207 45.497 26.5654L38.6509 22.6755H38.6504L38.6509 22.6751L45.497 26.5648C46.4749 27.1202 46.9646 27.8531 46.9635 28.585Z" fill="#404040"/>
<path d="M46.9686 28.583C46.8855 27.9201 46.3881 27.2713 45.5021 26.7679L38.5254 22.8043L38.6555 22.6741H38.6561L45.5021 26.564C46.4789 27.1193 46.968 27.8511 46.9686 28.583Z" fill="url(#paint9_linear_1_437)"/>
<path d="M14.6582 13.1055C14.6582 13.1049 14.6582 13.1044 14.6582 13.1038C14.6582 13.1044 14.6582 13.1049 14.6582 13.1055ZM14.6642 12.8781C14.6642 12.877 14.6642 12.8759 14.6642 12.8747C14.6642 12.8759 14.6642 12.877 14.6642 12.8781ZM14.6646 12.8715C14.6646 12.8693 14.6646 12.8672 14.6646 12.865C14.6646 12.8672 14.6646 12.8693 14.6646 12.8715ZM14.6646 12.8633C14.7457 11.4259 15.5272 10.5956 16.6329 10.5907C16.1535 10.5935 15.736 10.7509 15.4091 11.0455V11.0449L15.4052 11.0488C15.3708 11.0799 15.3381 11.1128 15.3057 11.1466C14.9385 11.5352 14.7068 12.1172 14.6646 12.8633Z" fill="#404040"/>
<path d="M14.6582 13.3169V13.1125C14.6582 13.1097 14.6582 13.1074 14.6582 13.1048C14.6582 13.1042 14.6582 13.1037 14.6582 13.1031C14.6582 13.026 14.6603 12.9506 14.6642 12.8774C14.6642 12.8763 14.6642 12.8752 14.6642 12.8741C14.6642 12.8731 14.6642 12.872 14.6646 12.8708C14.6646 12.8686 14.6646 12.8665 14.6646 12.8643C14.6646 12.8637 14.6646 12.8631 14.6646 12.8626C14.7068 12.1165 14.9385 11.5345 15.3057 11.1459L15.408 11.2486C14.9385 11.6723 14.6582 12.3789 14.6582 13.3169V13.3169ZM15.4052 11.0481L15.4091 11.0442C15.408 11.0459 15.4063 11.047 15.4052 11.0481Z" fill="url(#paint10_linear_1_437)"/>
<path d="M38.5232 22.8047L18.2144 11.2653C17.6514 10.9461 17.1186 10.7947 16.6441 10.7947C16.1604 10.7947 15.7384 10.9521 15.4089 11.2489L15.3066 11.1462C15.339 11.1123 15.3717 11.0794 15.4061 11.0484C15.4072 11.0473 15.4089 11.0461 15.41 11.045C15.7369 10.7505 16.1544 10.5931 16.6338 10.5903C16.6349 10.5903 16.6364 10.5903 16.6381 10.5903C16.6403 10.5903 16.6419 10.5903 16.6441 10.5903C17.1186 10.5903 17.6514 10.7417 18.2144 11.061L38.6539 22.6741L38.6533 22.6746L38.5232 22.8047Z" fill="url(#paint11_linear_1_437)"/>
</g>
<defs>
<linearGradient id="paint0_linear_1_437" x1="31.2064" y1="12.7867" x2="7.72472" y2="36.2684" gradientUnits="userSpaceOnUse">
<stop stop-color="#00A0FF"/>
<stop offset="0.00657445" stop-color="#00A1FF"/>
<stop offset="0.2601" stop-color="#00BEFF"/>
<stop offset="0.5122" stop-color="#00D2FF"/>
<stop offset="0.7604" stop-color="#00DFFF"/>
<stop offset="1" stop-color="#00E3FF"/>
</linearGradient>
<linearGradient id="paint1_linear_1_437" x1="48.0455" y1="28.5859" x2="14.1897" y2="28.5859" gradientUnits="userSpaceOnUse">
<stop stop-color="#FFE000"/>
<stop offset="0.4087" stop-color="#FFBD00"/>
<stop offset="0.7754" stop-color="#FFA500"/>
<stop offset="1" stop-color="#FF9C00"/>
</linearGradient>
<linearGradient id="paint2_linear_1_437" x1="35.4399" y1="31.7955" x2="3.59705" y2="63.6384" gradientUnits="userSpaceOnUse">
<stop stop-color="#FF3A44"/>
<stop offset="1" stop-color="#C31162"/>
</linearGradient>
<linearGradient id="paint3_linear_1_437" x1="10.9131" y1="0.846353" x2="25.1322" y2="15.0655" gradientUnits="userSpaceOnUse">
<stop stop-color="#32A071"/>
<stop offset="0.0685" stop-color="#2DA771"/>
<stop offset="0.4762" stop-color="#15CF74"/>
<stop offset="0.8009" stop-color="#06E775"/>
<stop offset="1" stop-color="#00F076"/>
</linearGradient>
<linearGradient id="paint4_linear_1_437" x1="48.0487" y1="28.5857" x2="14.1944" y2="28.5857" gradientUnits="userSpaceOnUse">
<stop stop-color="#CCB300"/>
<stop offset="0.4087" stop-color="#CC9700"/>
<stop offset="0.7754" stop-color="#CC8400"/>
<stop offset="1" stop-color="#CC7D00"/>
</linearGradient>
<linearGradient id="paint5_linear_1_437" x1="35.4429" y1="31.7955" x2="3.60001" y2="63.6384" gradientUnits="userSpaceOnUse">
<stop stop-color="#CC2E36"/>
<stop offset="1" stop-color="#9C0E4E"/>
</linearGradient>
<linearGradient id="paint6_linear_1_437" x1="31.2064" y1="12.7869" x2="7.72474" y2="36.2685" gradientUnits="userSpaceOnUse">
<stop stop-color="#008DE0"/>
<stop offset="0.00657445" stop-color="#008DE0"/>
<stop offset="0.2601" stop-color="#00A7E0"/>
<stop offset="0.5122" stop-color="#00B8E0"/>
<stop offset="0.7604" stop-color="#00C4E0"/>
<stop offset="1" stop-color="#00C7E0"/>
</linearGradient>
<linearGradient id="paint7_linear_1_437" x1="35.4433" y1="31.7977" x2="3.60293" y2="63.6413" gradientUnits="userSpaceOnUse">
<stop stop-color="#E0333C"/>
<stop offset="1" stop-color="#AB0F56"/>
</linearGradient>
<linearGradient id="paint8_linear_1_437" x1="48.0475" y1="28.5851" x2="14.1916" y2="28.5851" gradientUnits="userSpaceOnUse">
<stop stop-color="#E0C500"/>
<stop offset="0.4087" stop-color="#E0A600"/>
<stop offset="0.7754" stop-color="#E09100"/>
<stop offset="1" stop-color="#E08900"/>
</linearGradient>
<linearGradient id="paint9_linear_1_437" x1="48.048" y1="28.5844" x2="14.1922" y2="28.5844" gradientUnits="userSpaceOnUse">
<stop stop-color="#FFE840"/>
<stop offset="0.4087" stop-color="#FFCE40"/>
<stop offset="0.7754" stop-color="#FFBC40"/>
<stop offset="1" stop-color="#FFB540"/>
</linearGradient>
<linearGradient id="paint10_linear_1_437" x1="31.2064" y1="12.7855" x2="7.72475" y2="36.2672" gradientUnits="userSpaceOnUse">
<stop stop-color="#40B8FF"/>
<stop offset="0.00657445" stop-color="#40B9FF"/>
<stop offset="0.2601" stop-color="#40CEFF"/>
<stop offset="0.5122" stop-color="#40DDFF"/>
<stop offset="0.7604" stop-color="#40E7FF"/>
<stop offset="1" stop-color="#40EAFF"/>
</linearGradient>
<linearGradient id="paint11_linear_1_437" x1="10.9157" y1="0.845868" x2="25.1349" y2="15.065" gradientUnits="userSpaceOnUse">
<stop stop-color="#65B895"/>
<stop offset="0.0685" stop-color="#62BD95"/>
<stop offset="0.4762" stop-color="#50DB97"/>
<stop offset="0.8009" stop-color="#44ED98"/>
<stop offset="1" stop-color="#40F498"/>
</linearGradient>
<clipPath id="clip0_1_437">
<rect width="189.938" height="56.6667" fill="white" transform="translate(0.357422 0.25)"/>
</clipPath>
</defs>
</svg>
