<svg width="46" height="44" viewBox="0 0 46 44" fill="none" xmlns="http://www.w3.org/2000/svg">
<g clip-path="url(#clip0_1_500)">
<path d="M22.8327 4.68688C28.8889 4.68688 29.6061 4.71199 31.9879 4.81245C34.2014 4.90454 35.3967 5.25614 36.1936 5.54914C37.2473 5.93423 38.0087 6.40303 38.7967 7.14809C39.5936 7.90152 40.0806 8.61309 40.4879 9.60929C40.7978 10.3627 41.1697 11.5012 41.2671 13.5857C41.3733 15.846 41.3999 16.5241 41.3999 22.2418C41.3999 27.9679 41.3733 28.646 41.2671 30.8979C41.1697 32.9908 40.7978 34.1209 40.4879 34.8744C40.0806 35.8706 39.5848 36.5905 38.7967 37.3356C37.9999 38.089 37.2473 38.5494 36.1936 38.9345C35.3967 39.2275 34.1926 39.5791 31.9879 39.6712C29.5973 39.7716 28.8801 39.7968 22.8327 39.7968C16.7764 39.7968 16.0592 39.7716 13.6775 39.6712C11.4639 39.5791 10.2686 39.2275 9.47175 38.9345C8.4181 38.5494 7.65664 38.0806 6.86862 37.3356C6.07175 36.5821 5.58477 35.8706 5.17747 34.8744C4.86758 34.1209 4.4957 32.9824 4.39831 30.8979C4.29206 28.6376 4.2655 27.9595 4.2655 22.2418C4.2655 16.5157 4.29206 15.8377 4.39831 13.5857C4.4957 11.4929 4.86758 10.3627 5.17747 9.60929C5.58477 8.61309 6.0806 7.89315 6.86862 7.14809C7.6655 6.39465 8.4181 5.93423 9.47175 5.54914C10.2686 5.25614 11.4728 4.90454 13.6775 4.81245C16.0592 4.71199 16.7764 4.68688 22.8327 4.68688ZM22.8327 0.827637C16.679 0.827637 15.9087 0.852751 13.4915 0.953209C11.0832 1.05367 9.42747 1.42201 7.9931 1.94941C6.49675 2.50193 5.2306 3.23024 3.97331 4.42736C2.70716 5.61611 1.93685 6.81323 1.35247 8.21963C0.794661 9.58418 0.405078 11.1413 0.298828 13.4183C0.192578 15.7121 0.166016 16.4404 0.166016 22.2586C0.166016 28.0767 0.192578 28.805 0.298828 31.0905C0.405078 33.3675 0.794661 34.9329 1.35247 36.2891C1.93685 37.7039 2.70716 38.901 3.97331 40.0898C5.2306 41.2785 6.49675 42.0152 7.98425 42.5593C9.42748 43.0867 11.0743 43.4551 13.4827 43.5555C15.8999 43.656 16.6702 43.6811 22.8238 43.6811C28.9775 43.6811 29.7478 43.656 32.165 43.5555C34.5733 43.4551 36.229 43.0867 37.6634 42.5593C39.1509 42.0152 40.4171 41.2785 41.6744 40.0898C42.9316 38.901 43.7108 37.7039 44.2863 36.2975C44.8441 34.933 45.2337 33.3759 45.34 31.0988C45.4462 28.8134 45.4728 28.0851 45.4728 22.2669C45.4728 16.4488 45.4462 15.7205 45.34 13.435C45.2337 11.158 44.8441 9.59255 44.2863 8.23638C43.7285 6.81323 42.9582 5.61611 41.6921 4.42736C40.4348 3.23862 39.1686 2.50193 37.6811 1.95778C36.2379 1.43038 34.591 1.06204 32.1827 0.96158C29.7566 0.852751 28.9863 0.827637 22.8327 0.827637Z" fill="white"/>
<path d="M22.8327 11.2501C16.4046 11.2501 11.1895 16.1809 11.1895 22.2586C11.1895 28.3363 16.4046 33.267 22.8327 33.267C29.2608 33.267 34.4759 28.3363 34.4759 22.2586C34.4759 16.1809 29.2608 11.2501 22.8327 11.2501ZM22.8327 29.3994C18.6624 29.3994 15.2801 26.2015 15.2801 22.2586C15.2801 18.3156 18.6624 15.1177 22.8327 15.1177C27.003 15.1177 30.3853 18.3156 30.3853 22.2586C30.3853 26.2015 27.003 29.3994 22.8327 29.3994Z" fill="white"/>
<path d="M37.6545 10.8148C37.6545 12.2379 36.4327 13.3848 34.9363 13.3848C33.4311 13.3848 32.2181 12.2296 32.2181 10.8148C32.2181 9.39164 33.44 8.24475 34.9363 8.24475C36.4327 8.24475 37.6545 9.40001 37.6545 10.8148Z" fill="white"/>
</g>
<defs>
<clipPath id="clip0_1_500">
<rect width="45.3333" height="42.8619" fill="white" transform="translate(0.166016 0.827637)"/>
</clipPath>
</defs>
</svg>
