<svg width="85" height="67" viewBox="0 0 85 67" fill="none" xmlns="http://www.w3.org/2000/svg">
<g clip-path="url(#clip0_1_505)">
<path d="M83.3222 65.2326V65.4026H83.4807C83.5105 65.4031 83.5398 65.3956 83.5657 65.3809C83.5761 65.3736 83.5844 65.3638 83.59 65.3525C83.5955 65.3411 83.5982 65.3285 83.5976 65.3159C83.5981 65.3035 83.5955 65.2911 83.5899 65.2801C83.5843 65.269 83.576 65.2595 83.5657 65.2526C83.5401 65.2372 83.5106 65.2296 83.4807 65.2309H83.3222V65.2326ZM83.4824 65.1123C83.5504 65.1081 83.6177 65.1277 83.6728 65.1676C83.695 65.1857 83.7125 65.2087 83.7241 65.2348C83.7357 65.261 83.741 65.2895 83.7396 65.318C83.7406 65.3426 83.7363 65.3671 83.7271 65.3899C83.7178 65.4127 83.7038 65.4332 83.686 65.4502C83.6435 65.4872 83.5901 65.5094 83.5339 65.5135L83.7464 65.7557H83.5827L83.3872 65.5152H83.3239V65.7557H83.1871V65.1127H83.4846L83.4824 65.1123ZM83.4399 65.9776C83.5117 65.9783 83.5828 65.9638 83.6486 65.9351C83.712 65.9078 83.7697 65.8687 83.8186 65.8199C83.8676 65.7712 83.9067 65.7135 83.9338 65.6499C83.9896 65.5152 83.9896 65.3639 83.9338 65.2292C83.9063 65.1658 83.8672 65.1082 83.8186 65.0592C83.7697 65.0104 83.712 64.9713 83.6486 64.944C83.5824 64.9169 83.5115 64.9033 83.4399 64.9041C83.3672 64.9034 83.295 64.9169 83.2274 64.944C83.1626 64.9708 83.1036 65.0099 83.0536 65.0592C82.9784 65.1363 82.9276 65.2338 82.9074 65.3396C82.8872 65.4454 82.8986 65.5548 82.9401 65.6542C82.966 65.718 83.0046 65.7758 83.0536 65.8242C83.1036 65.8734 83.1626 65.9125 83.2274 65.9394C83.2946 65.968 83.3669 65.9825 83.4399 65.9819V65.9776ZM83.4399 64.7494C83.6267 64.7492 83.8061 64.8224 83.9393 64.9533C84.0035 65.0162 84.0547 65.0912 84.0898 65.1739C84.1261 65.2589 84.1448 65.3503 84.1448 65.4427C84.1448 65.5351 84.1261 65.6266 84.0898 65.7116C84.0539 65.7938 84.0028 65.8687 83.9393 65.9321C83.8741 65.9946 83.7983 66.045 83.7153 66.0809C83.6283 66.1179 83.5345 66.1367 83.4399 66.1361C83.3442 66.1368 83.2494 66.118 83.1611 66.0809C83.0773 66.0459 83.0007 65.9954 82.9355 65.9321C82.872 65.8663 82.8216 65.789 82.7871 65.7043C82.7508 65.6194 82.7321 65.5279 82.7321 65.4355C82.7321 65.3431 82.7508 65.2517 82.7871 65.1667C82.8222 65.084 82.8734 65.009 82.9376 64.9461C83.002 64.8818 83.0787 64.8312 83.1633 64.7974C83.2515 64.7602 83.3463 64.7414 83.4421 64.7421L83.4399 64.7494ZM18.3639 62.2661C18.3639 61.0399 19.1672 60.0327 20.48 60.0327C21.7346 60.0327 22.5812 60.9966 22.5812 62.2661C22.5812 63.5355 21.7346 64.4995 20.48 64.4995C19.1672 64.4995 18.3639 63.4922 18.3639 62.2661V62.2661ZM24.0113 62.2661V58.7768H22.4945V59.6268C22.0134 58.9987 21.2837 58.6047 20.2913 58.6047C18.3363 58.6047 16.8021 60.1381 16.8021 62.2678C16.8021 64.3975 18.3355 65.9308 20.2913 65.9308C21.2833 65.9308 22.0134 65.5365 22.4945 64.9087V65.7557H24.0096V62.2661H24.0113ZM75.2629 62.2661C75.2629 61.0399 76.0662 60.0327 77.3794 60.0327C78.6353 60.0327 79.4806 60.9966 79.4806 62.2661C79.4806 63.5355 78.6353 64.4995 77.3794 64.4995C76.0666 64.4995 75.2629 63.4922 75.2629 62.2661ZM80.912 62.2661V55.9761H79.3939V59.6268C78.9128 58.9987 78.1831 58.6047 77.1907 58.6047C75.2357 58.6047 73.7015 60.1381 73.7015 62.2678C73.7015 64.3975 75.2349 65.9308 77.1907 65.9308C78.1831 65.9308 78.9128 65.5365 79.3939 64.9087V65.7557H80.912V62.2661ZM42.8371 59.9609C43.8146 59.9609 44.4424 60.5737 44.6026 61.6528H40.9833C41.1452 60.6456 41.7568 59.9609 42.8376 59.9609H42.8371ZM42.8677 58.6009C40.8235 58.6009 39.3934 60.0884 39.3934 62.264C39.3934 64.482 40.8809 65.927 42.9693 65.927C44.0199 65.927 44.9821 65.6648 45.8287 64.9495L45.0854 63.8254C44.5006 64.2929 43.756 64.5551 43.056 64.5551C42.0785 64.5551 41.1886 64.1025 40.9697 62.8466H46.1492C46.164 62.6579 46.1793 62.4675 46.1793 62.2635C46.164 60.0888 44.8193 58.6004 42.8669 58.6004L42.8677 58.6009ZM61.1801 62.2635C61.1801 61.0374 61.9834 60.0301 63.2962 60.0301C64.5508 60.0301 65.3974 60.9941 65.3974 62.2635C65.3974 63.533 64.5508 64.4969 63.2962 64.4969C61.9834 64.4969 61.1797 63.4897 61.1797 62.2635H61.1801ZM66.8271 62.2635V58.7768H65.3111V59.6268C64.8283 58.9987 64.1003 58.6047 63.1079 58.6047C61.1529 58.6047 59.6187 60.1381 59.6187 62.2678C59.6187 64.3975 61.1521 65.9308 63.1079 65.9308C64.1003 65.9308 64.8283 65.5365 65.3111 64.9087V65.7557H66.8275V62.2661L66.8271 62.2635ZM52.6143 62.2635C52.6143 64.3796 54.0873 65.9266 56.3356 65.9266C57.3862 65.9266 58.0861 65.6929 58.8431 65.0949L58.1146 63.8688C57.5451 64.278 56.9471 64.4969 56.2871 64.4969C55.0763 64.482 54.1859 63.6065 54.1859 62.2635C54.1859 60.9205 55.0763 60.0454 56.2871 60.0301C56.9454 60.0301 57.5434 60.249 58.1146 60.6583L58.8431 59.4322C58.0849 58.8342 57.3849 58.6004 56.3356 58.6004C54.0873 58.6004 52.6143 60.147 52.6143 62.2635V62.2635ZM72.1685 58.6004C71.2934 58.6004 70.7235 59.0097 70.3295 59.6226V58.7768H68.8263V65.7519H70.3448V61.8419C70.3448 60.6876 70.8408 60.0463 71.8323 60.0463C72.157 60.0416 72.4794 60.1013 72.7809 60.2218L73.2484 58.7921C72.9127 58.6599 72.4749 58.6017 72.1677 58.6017L72.1685 58.6004ZM31.5105 59.3315C30.7807 58.8504 29.7752 58.6017 28.6659 58.6017C26.8988 58.6017 25.7611 59.4488 25.7611 60.8347C25.7611 61.972 26.6081 62.6736 28.1678 62.8925L28.8844 62.9945C29.7161 63.1114 30.1088 63.3303 30.1088 63.7243C30.1088 64.2636 29.5563 64.5713 28.5189 64.5713C27.4683 64.5713 26.7101 64.2355 26.1988 63.8416L25.4861 65.0243C26.3178 65.6372 27.3684 65.9296 28.5061 65.9296C30.5206 65.9296 31.6881 64.981 31.6881 63.6528C31.6881 62.4267 30.7693 61.7854 29.2512 61.5665L28.5363 61.4628C27.8797 61.3778 27.3535 61.2456 27.3535 60.7781C27.3535 60.2681 27.8495 59.9613 28.6817 59.9613C29.572 59.9613 30.4339 60.297 30.8564 60.5593L31.513 59.3331L31.5105 59.3315ZM51.0821 58.603C50.2071 58.603 49.6371 59.0123 49.2449 59.6251V58.7768H47.7416V65.7519H49.2585V61.8419C49.2585 60.6876 49.7544 60.0463 50.746 60.0463C51.0707 60.0416 51.3931 60.1013 51.6946 60.2218L52.1621 58.7921C51.8263 58.6599 51.3886 58.6017 51.0813 58.6017L51.0821 58.603ZM38.1383 58.7768H35.658V56.6607H34.1246V58.7768H32.7098V60.1632H34.1246V63.3451C34.1246 64.9636 34.7528 65.9275 36.5471 65.9275C37.2055 65.9275 37.9637 65.7235 38.4448 65.3881L38.0066 64.0893C37.554 64.3516 37.058 64.4837 36.6636 64.4837C35.9054 64.4837 35.658 64.0162 35.658 63.3163V60.1645H38.1383V58.7768ZM15.4608 65.7536V61.3761C15.4608 59.7276 14.4102 58.6183 12.7165 58.6034C11.8262 58.5886 10.9077 58.8657 10.2647 59.8444C9.78361 59.0709 9.02541 58.6034 7.95951 58.6034C7.21449 58.6034 6.48646 58.8223 5.91654 59.6392V58.7768H4.39844V65.7519H5.92844V61.8844C5.92844 60.6736 6.59994 60.0301 7.63694 60.0301C8.64419 60.0301 9.15376 60.6868 9.15376 61.8691V65.7511H10.6872V61.8836C10.6872 60.6727 11.3871 60.0293 12.394 60.0293C13.4297 60.0293 13.924 60.6859 13.924 61.8683V65.7502L15.4608 65.7536Z" fill="#231F20"/>
<path d="M84.1904 42.5513V41.5312H83.9248L83.6175 42.2312L83.3119 41.5312H83.0454V42.5513H83.2341V41.7829L83.5214 42.4459H83.7169L84.0042 41.7812V42.5513H84.1912H84.1904ZM82.5053 42.5513V41.7059H82.8453V41.5338H81.9766V41.7059H82.3166V42.5513H82.5036H82.5053Z" fill="#F79410"/>
<path d="M53.9983 46.9267H31.0117V5.6167H53.9987L53.9983 46.9267Z" fill="#FF5F00"/>
<path d="M32.47 26.2721C32.47 17.8924 36.3936 10.4277 42.5034 5.61713C37.8786 1.97041 32.1584 -0.00879577 26.2688 -9.34956e-05C11.7606 -9.34956e-05 0 11.7622 0 26.2721C0 40.7821 11.7606 52.5444 26.2688 52.5444C32.1586 52.5532 37.8789 50.574 42.5038 46.9271C36.3945 42.1174 32.47 34.6523 32.47 26.2721Z" fill="#EB001B"/>
<path d="M85.0118 26.2723C85.0118 40.7822 73.2512 52.5445 58.743 52.5445C52.8526 52.5531 47.1317 50.574 42.5059 46.9273C48.6174 42.1167 52.541 34.6524 52.541 26.2723C52.541 17.8921 48.6174 10.4278 42.5059 5.61725C47.1315 1.97064 52.8523 -0.00852117 58.7426 2.7578e-05C73.2508 2.7578e-05 85.0114 11.7623 85.0114 26.2723" fill="#F79E1B"/>
</g>
<defs>
<clipPath id="clip0_1_505">
<rect width="85" height="66.13" fill="white"/>
</clipPath>
</defs>
</svg>
