<svg width="106" height="105" viewBox="0 0 106 105" fill="none" xmlns="http://www.w3.org/2000/svg">
<path d="M53.6319 72.1152L76.5078 84.8407C78.1595 85.7616 80.1167 84.285 79.7038 82.4351L74.1293 57.3986L93.6937 39.8948C95.1059 38.6255 94.3625 36.2779 92.4796 36.0705L65.9287 33.0922L55.6303 10.0966C54.854 8.37111 52.4096 8.37111 51.6415 10.0966L41.3433 33.0922L14.7923 36.0705C12.9093 36.2779 12.1661 38.6338 13.5783 39.8948L33.1426 57.3986L27.5681 82.4351C27.1552 84.285 29.1124 85.7533 30.7641 84.8407L53.6401 72.1152H53.6319Z" stroke="#4D5559" stroke-width="4" stroke-linecap="round" stroke-linejoin="round"/>
<path d="M90.0352 64.251C90.7867 64.5496 104 73.4011 104 73.4011" stroke="#00B5E2" stroke-width="4" stroke-linecap="round"/>
<path d="M55.6953 87.9434V103" stroke="#00B5E2" stroke-width="4" stroke-linecap="round"/>
<path d="M79.0021 14.0703C79.4316 13.3817 90.564 2 90.564 2" stroke="#00B5E2" stroke-width="4" stroke-linecap="round"/>
<path d="M15.9651 64.2509C15.2136 64.5495 2 73.401 2 73.401" stroke="#00B5E2" stroke-width="4" stroke-linecap="round"/>
<path d="M26.9974 14.0703C26.568 13.3817 15.4355 2 15.4355 2" stroke="#00B5E2" stroke-width="4" stroke-linecap="round"/>
</svg>
